<?xml version="1.0" encoding="UTF-8"?>
<svg width="210mm" height="297mm" version="1.1" viewBox="-22 0 254 254" xmlns="http://www.w3.org/2000/svg">
 <g transform="matrix(2.1562 0 0 2.1562 -121.93 -81.898)">
  <path transform="scale(.26458)" d="m299.65 398.62-8.2773 35.508c-1.8654 3.8223-2.8535 7.8313-2.8535 11.988 2e-5 29.143 48.488 52.77 108.3 52.77 59.815 0 108.3-23.627 108.3-52.77 0-4.0723-0.9479-8.0019-2.7402-11.754l-8.3418-35.781c-0.67132 0.52231-1.2615 1.0626-1.9883 1.5723-1.6673 1.1691-3.4794 2.303-5.4258 3.4004-1.9463 1.0974-4.0272 2.157-6.2344 3.1758-2.2072 1.0187-4.5403 1.9965-6.9902 2.9297-4.8999 1.8664-10.267 3.5544-16.029 5.0371-5.7619 1.4828-11.92 2.7609-18.398 3.8047-6.4787 1.0438-13.28 1.8547-20.33 2.4043-7.0504 0.54956-14.349 0.83789-21.826 0.83789-7.4769 0-14.778-0.28833-21.828-0.83789-7.0503-0.54956-13.849-1.3605-20.328-2.4043-6.4786-1.0438-12.637-2.3219-18.398-3.8047-5.7618-1.4828-11.128-3.1707-16.027-5.0371-2.4499-0.9332-4.7831-1.911-6.9902-2.9297s-4.2881-2.0784-6.2344-3.1758-3.7585-2.2313-5.4258-3.4004c-0.70886-0.49706-1.2834-1.0241-1.9394-1.5332z" fill="#f60"/>
  <path transform="scale(.26458)" d="m313.19 340.55-13.535 58.066c0.65609 0.50913 1.2306 1.0362 1.9394 1.5332 1.6673 1.1691 3.4795 2.303 5.4258 3.4004s4.0272 2.157 6.2344 3.1758 4.5404 1.9965 6.9902 2.9297c4.8997 1.8664 10.266 3.5544 16.027 5.0371 5.7618 1.4828 11.92 2.7609 18.398 3.8047 6.4786 1.0438 13.278 1.8547 20.328 2.4043 7.0504 0.54956 14.351 0.83789 21.828 0.83789 7.4769 0 14.776-0.28833 21.826-0.83789 7.0504-0.54956 13.851-1.3605 20.33-2.4043 6.4787-1.0438 12.637-2.3219 18.398-3.8047 5.7619-1.4828 11.129-3.1707 16.029-5.0371 2.4499-0.9332 4.783-1.911 6.9902-2.9297s4.288-2.0784 6.2344-3.1758c1.9463-1.0974 3.7585-2.2313 5.4258-3.4004 0.72682-0.50963 1.317-1.05 1.9883-1.5723l-13.535-58.061c-0.33789 0.2515-0.66384 0.50574-1.0469 0.74805-1.4467 0.91524-3.0201 1.803-4.709 2.6621s-3.4949 1.6888-5.4102 2.4863-3.9386 1.5643-6.0644 2.2949c-4.2517 1.4612-8.9085 2.7825-13.908 3.9434-4.9997 1.1608-10.343 2.1613-15.965 2.9785-5.6217 0.81718-11.523 1.4526-17.641 1.8828-6.1178 0.43025-12.452 0.6543-18.939 0.6543-6.4879 0-12.824-0.22406-18.941-0.6543-6.1177-0.43024-12.017-1.0656-17.639-1.8828-5.6216-0.81719-10.965-1.8177-15.965-2.9785-4.9996-1.1608-9.6566-2.4822-13.908-3.9434-2.1258-0.73059-4.1493-1.4974-6.0645-2.2949-1.9152-0.79755-3.7213-1.6272-5.4102-2.4863s-3.2623-1.7469-4.709-2.6621c-0.36701-0.23219-0.6801-0.47391-1.0039-0.71484z" fill="#ffe6d5"/>
  <path transform="scale(.26458)" d="m404.05 145.97c-0.21884-0.0335-0.42657-0.0985-0.64648-0.12891-0.0819-4e-3 -0.18232-0.0126-0.26758-0.0176 0.23773 0.0292 0.66363 0.11399 0.91406 0.14648z" fill="#d40000"/>
  <path transform="scale(.26458)" d="m325.06 289.6-11.877 50.953c0.3238 0.24093 0.63689 0.48265 1.0039 0.71484 1.4467 0.91524 3.0202 1.803 4.709 2.6621s3.495 1.6888 5.4102 2.4863c1.9152 0.79755 3.9387 1.5643 6.0645 2.2949 4.2516 1.4612 8.9086 2.7825 13.908 3.9434 4.9996 1.1608 10.343 2.1613 15.965 2.9785 5.6216 0.81718 11.521 1.4526 17.639 1.8828 6.1177 0.43024 12.454 0.6543 18.941 0.6543 6.4879 0 12.822-0.22405 18.939-0.6543 6.1178-0.43024 12.019-1.0656 17.641-1.8828 5.6217-0.81719 10.965-1.8177 15.965-2.9785 4.9997-1.1608 9.6565-2.4822 13.908-3.9434 2.1259-0.73059 4.1492-1.4974 6.0644-2.2949s3.7213-1.6272 5.4102-2.4863 3.2622-1.7469 4.709-2.6621c0.38304-0.24231 0.70899-0.49655 1.0469-0.74805l-11.875-50.945c-0.13038 0.0803-0.25033 0.16242-0.39454 0.24024-1.2502 0.67482-2.6089 1.3295-4.0684 1.9629-1.4595 0.63343-3.0207 1.2459-4.6758 1.834-1.6551 0.58805-3.4031 1.1527-5.2402 1.6914-3.6742 1.0773-7.699 2.0523-12.02 2.9082-4.3206 0.85589-8.9388 1.5928-13.797 2.1953-4.8581 0.60252-9.9574 1.0715-15.244 1.3887-5.2868 0.31722-10.761 0.48242-16.367 0.48242-5.6066 0-11.08-0.16521-16.367-0.48242-5.2867-0.31723-10.384-0.78616-15.242-1.3887s-9.4764-1.3394-13.797-2.1953c-4.3205-0.8559-8.3454-1.8309-12.02-2.9082-1.837-0.53868-3.5852-1.1034-5.2402-1.6914-1.655-0.58805-3.2164-1.2006-4.6758-1.834s-2.8182-1.2881-4.0684-1.9629c-0.12958-0.0699-0.23764-0.14307-0.35547-0.21485z" fill="#f60"/>
  <path transform="scale(.26458)" d="m390.9 145.77c-0.0827 5e-3 -0.18048 0.0138-0.25977 0.0176-0.23411 0.0302-0.45825 0.0953-0.69141 0.12891 0.26394-0.0322 0.70125-0.1178 0.95118-0.14649z" fill="#d40000"/>
  <path transform="scale(.26458)" d="m336.47 240.64-11.412 48.957c0.11783 0.0718 0.22589 0.14491 0.35547 0.21485 1.2502 0.67482 2.6089 1.3295 4.0684 1.9629s3.0208 1.2459 4.6758 1.834c1.655 0.58805 3.4032 1.1527 5.2402 1.6914 3.6741 1.0773 7.699 2.0523 12.02 2.9082 4.3205 0.85589 8.9388 1.5928 13.797 2.1953s9.9555 1.0714 15.242 1.3887c5.2867 0.31721 10.761 0.48242 16.367 0.48242 5.6066 0 11.08-0.1652 16.367-0.48242 5.2868-0.31722 10.386-0.78616 15.244-1.3887 4.8581-0.60252 9.4763-1.3394 13.797-2.1953 4.3206-0.8559 8.3454-1.8309 12.02-2.9082 1.8371-0.53868 3.5851-1.1034 5.2402-1.6914 1.6551-0.58805 3.2163-1.2006 4.6758-1.834 1.4594-0.63343 2.8182-1.2881 4.0684-1.9629 0.14421-0.0778 0.26416-0.15997 0.39454-0.24024l-11.41-48.949c-0.0929 0.0458-0.18239 0.0925-0.28711 0.13672-1.0523 0.44562-2.1954 0.87859-3.4238 1.2969s-2.5424 0.82262-3.9356 1.2109c-1.393 0.38832-2.8639 0.76146-4.4102 1.1172-3.0925 0.71143-6.4806 1.3547-10.117 1.9199-3.6366 0.56519-7.5242 1.0514-11.613 1.4492-4.0891 0.39788-8.3802 0.70851-12.83 0.91797-4.4499 0.2095-9.0564 0.31836-13.775 0.31836s-9.3276-0.1089-13.777-0.31836c-4.4498-0.20948-8.7392-0.52009-12.828-0.91797-4.089-0.39787-7.9768-0.88403-11.613-1.4492-3.6365-0.56519-7.0247-1.2085-10.117-1.9199-1.5462-0.35572-3.0171-0.72886-4.4102-1.1172-1.393-0.38831-2.7072-0.79264-3.9356-1.2109-1.2284-0.41829-2.3715-0.85126-3.4238-1.2969-0.0913-0.0387-0.17057-0.0793-0.25195-0.11914z" fill="#ffe6d5"/>
  <path transform="scale(.26458)" d="m396.85 145.39c-1.3384 3.7e-4 -4.0546 0.27938-5.9473 0.38281-0.24993 0.0287-0.68724 0.11426-0.95118 0.14649-13.775 1.9839-25.884 9.838-36.496 21.873l-16.982 72.848c0.0814 0.0399 0.16066 0.0805 0.25195 0.11914 1.0523 0.44562 2.1954 0.87859 3.4238 1.2969 1.2284 0.41829 2.5425 0.82262 3.9356 1.2109 1.393 0.38833 2.8639 0.76147 4.4102 1.1172 3.0925 0.71143 6.4806 1.3547 10.117 1.9199 3.6365 0.56519 7.5243 1.0514 11.613 1.4492 4.089 0.39788 8.3783 0.70849 12.828 0.91797 4.4498 0.20946 9.0583 0.31836 13.777 0.31836s9.3255-0.10886 13.775-0.31836c4.4498-0.20946 8.741-0.52009 12.83-0.91797 4.089-0.39787 7.9767-0.88403 11.613-1.4492 3.6366-0.56519 7.0247-1.2085 10.117-1.9199 1.5463-0.35573 3.0171-0.72887 4.4102-1.1172 1.3931-0.38831 2.7071-0.79264 3.9356-1.2109s2.3716-0.85126 3.4238-1.2969c0.10472-0.0442 0.19423-0.0909 0.28711-0.13672l-16.375-70.242c-10.242-13.378-22.355-22.2-36.799-24.41-0.25043-0.0325-0.67633-0.11724-0.91406-0.14648-1.9958-0.11661-4.831-0.43163-6.2617-0.4336h-0.0237z" fill="#f60"/>
 </g>
 <g transform="matrix(1.9355 0 0 2.2042 -287.09 -858.03)">
  <path transform="matrix(.26458 0 0 .26458 0 -21)" d="m783.66 1578.4c-0.22732 0.111-2.2729 4.9473-5.3867 12.65-3.1138 7.7032-7.2958 18.273-11.793 29.85s-8.7437 22.265-11.961 30.16c-3.2172 7.8953-5.405 12.998-5.7891 13.4-0.28954 0.3036-0.53471 0.4823-0.73437 0.5391-0.19966 0.057-0.35455-0.01-0.46485-0.1934-0.22059-0.3702-0.26267-1.2197-0.1289-2.5273 0.26754-2.6153 1.2401-7.0649 2.9004-13.19 0.81305-2.9992 1.4835-5.8346 1.9102-7.9883 0.42665-2.1537 0.60947-3.6258 0.44336-3.8945-0.13462-0.2178-0.58215-0.3822-1.2754-0.5-0.69323-0.1178-1.632-0.189-2.7539-0.2168-2.2437-0.056-5.2142 0.058-8.3926 0.3027-3.1784 0.2444-6.5654 0.6195-9.6387 1.084-3.0732 0.4645-5.8334 1.0185-7.7617 1.6231-2.4212 0.7591-4.8367 1.6537-7.1953 2.6562s-4.6614 2.1132-6.8574 3.3047-4.2856 2.4648-6.2188 3.791-3.709 2.7049-5.2793 4.1113l-5.3027 4.75 5.9258 5.8145c1.8191 1.7849 3.0981 3.1944 3.8496 4.2187 0.37577 0.5122 0.61944 0.9275 0.73243 1.2461 0.11297 0.3187 0.0963 0.5413-0.0508 0.6641-0.29417 0.2456-1.1058 0.096-2.4238-0.4551-1.3181-0.5515-3.1428-1.5062-5.4629-2.873-3.1371-1.8482-6.2103-3.427-9.2852-4.7559s-6.1509-2.4075-9.293-3.2519c-3.1421-0.8445-6.3508-1.4548-9.6894-1.8496-3.3387-0.395-6.8079-0.5747-10.473-0.5547-2.173 0.012-4.4169 0.1234-6.6621 0.3242s-4.4922 0.4914-6.668 0.8574-4.2813 0.8071-6.2461 1.3145c-1.9648 0.5073-3.7883 1.0801-5.4004 1.705l-3 1.1621 4.9434 4.3829c1.2495 1.1077 2.2299 2.0737 2.9297 2.8652s1.1184 1.4077 1.248 1.8184c0.0648 0.2052 0.0581 0.3591-0.0234 0.457-0.0815 0.098-0.2383 0.1406-0.46875 0.123-0.46088-0.035-1.2211-0.3098-2.293-0.8554-1.2846-0.6539-13.041-8.1728-26.125-16.709-6.5418-4.2681-12.56-8.0772-16.986-10.775-4.4265-2.6982-7.2613-4.2856-7.4356-4.1113-0.17418 0.1742 1.0442 4.7749 3.1484 12.047 2.1042 7.272 5.0943 17.215 8.4609 28.074 3.0704 9.9035 5.5186 17.982 7.3672 24.34 1.8486 6.3583 3.0973 10.996 3.7715 14.022 0.33708 1.5126 0.52968 2.6226 0.58203 3.3418 0.0524 0.7192-0.0353 1.0477-0.26172 1-0.45294-0.095-1.4575-1.6974-2.9902-4.7012-1.6839-3.3001-4.7744-10.178-6.8692-15.283-1.0474-2.5524-2.1232-4.8323-3.0117-6.4512-0.8885-1.6188-1.5896-2.5766-1.8906-2.4804-0.44225 0.1414-1.1253 1.1893-1.9219 2.7988-0.79659 1.6095-1.7072 3.7803-2.6016 6.1719-0.89435 2.3915-1.7723 5.0025-2.5078 7.4902s-1.3282 4.8522-1.6484 6.75c-0.37939 2.2482-0.61325 5.0183-0.69726 8.1426-0.084 3.1243-0.0182 6.6028 0.20117 10.272 0.28942 4.8406 0.40661 7.6524 0.30469 9.1308-0.051 0.7392-0.15752 1.1445-0.32422 1.3047s-0.39312 0.074-0.6875-0.1699c-0.38188-0.317-0.9349-1.2835-1.5176-2.586-0.58267-1.3024-1.195-2.9408-1.6973-4.5996l-1.8262-6.0312-2.3789 2.2344c-0.79141 0.7435-1.5587 1.6522-2.293 2.6972-0.73431 1.0451-1.4358 2.2272-2.0957 3.5137-1.3197 2.5731-2.4728 5.5694-3.3906 8.748-0.91786 3.1787-1.6013 6.5399-1.9785 9.8438-0.18862 1.6519-0.30066 3.2896-0.32812 4.8828-0.0275 1.5932 0.0306 3.1409 0.18164 4.6152 0.19659 1.9188 0.50241 3.9094 0.87305 5.8164 0.37063 1.9072 0.80674 3.7312 1.2617 5.3145s0.92927 2.9253 1.3789 3.8731c0.44964 0.9476 0.87392 1.4999 1.2285 1.5 0.57917-2e-4 5.3699-2.4659 10.646-5.4805 2.6383-1.5073 5.0892-2.8232 6.9141-3.7305s3.0237-1.406 3.1543-1.2754c0.15796 0.158 0.28801 0.3018 0.29492 0.5117 7e-3 0.21-0.10863 0.487-0.44726 0.9082-0.67726 0.8425-2.2404 2.2666-5.4668 4.9102-6.4528 5.2871-19.56 15.45-45.545 35.59-9.8504 7.6346-18.739 14.641-25.125 19.779-6.3859 5.1384-10.269 8.4086-10.107 8.5704 0.32345 0.3234 25.936 1.3345 56.916 2.248 15.49 0.4566 29.713 0.9597 40.15 1.4023 10.438 0.4427 17.091 0.8248 17.438 1.0391 0.54388 0.3361 0.77325 0.6476 0.67969 0.9375-0.0936 0.2899-0.50926 0.559-1.2578 0.8086-1.4971 0.4992-4.3225 0.9231-8.5449 1.2969-2.1564 0.1909-4.1788 0.4635-5.6992 0.75-1.5205 0.2864-2.539 0.5867-2.6895 0.8301-0.23317 0.3772-0.0312 1.6572 0.47071 3.4863 0.50193 1.829 1.3042 4.2067 2.2734 6.7773 0.96925 2.5706 2.1047 5.3355 3.2734 7.9375s2.3703 5.0416 3.4707 6.9649c1.8271 3.1933 3.954 6.3716 6.3086 9.457s4.936 6.0781 7.6719 8.9043 5.6268 5.4845 8.5977 7.9004c2.9708 2.4158 6.0225 4.5891 9.082 6.4433 3.3823 2.0499 8.3403 4.4754 13.057 6.4981 2.3582 1.0114 4.6557 1.9224 6.666 2.6348s3.7333 1.2266 4.9414 1.4453c0.90007 0.1629 1.5868 0.2791 2.1191 0.3144 0.53234 0.035 0.91054-0.01 1.1953-0.1699 0.28478-0.1595 0.47539-0.4337 0.63281-0.8555 0.15742-0.4217 0.28138-0.9908 0.43164-1.7422 0.36374-1.8186 0.83959-3.0023 1.3301-3.4589 0.24524-0.2284 0.49471-0.2758 0.73437-0.1289 0.23967 0.1469 0.47046 0.4879 0.67969 1.0332 0.3219 0.8387 0.15303 20.974-0.37305 44.744-0.59487 26.902-0.89128 39.389-0.89453 45.062-2e-3 2.8367 0.0706 3.9704 0.21485 4.3496 0.0721 0.1896 0.16117 0.1916 0.26953 0.1231 0.10835-0.069 0.23449-0.2077 0.3789-0.2969 0.53428-0.3303 14.464-18.021 30.957-39.311 14.071-18.164 22.694-29.216 27.939-35.726 2.6225-3.2554 4.4014-5.3754 5.5938-6.6817 1.1924-1.3062 1.7982-1.7988 2.0781-1.7988 0.27249 0 0.42086 0.1307 0.41407 0.4551-7e-3 0.3243-0.16829 0.8425-0.50977 1.6172-0.68296 1.5492-2.0912 4.1247-4.4453 8.2304-2.75 4.796-5 9.3291-5 10.072 0 0.3715 0.53554 1.2084 1.3965 2.2559s2.0473 2.3055 3.3535 3.5234c1.9114 1.782 3.8986 3.4604 5.9512 5.0332s4.1717 3.0412 6.3477 4.4043c2.1759 1.3631 4.4081 2.6208 6.6894 3.7734 2.2814 1.1527 4.6115 2.1991 6.9805 3.1407s4.7782 1.7779 7.2168 2.5078 4.9061 1.3535 7.3965 1.8711 5.003 0.9297 7.5273 1.2343c2.5243 0.3047 5.0612 0.5028 7.6016 0.5938 2.5403 0.091 5.0846 0.074 7.623-0.049 2.5384-0.1233 5.0712-0.3533 7.5898-0.6914 2.5187-0.3382 5.0229-0.7843 7.5039-1.3379 2.481-0.5537 4.9378-1.2146 7.3633-1.9844s4.8198-1.6481 7.1719-2.6348c2.3521-0.9866 4.663-2.083 6.9238-3.2871s4.4715-2.5173 6.623-3.9394c2.1516-1.4222 4.2431-2.9529 6.2676-4.5938 3.187-2.5832 6.2534-5.4374 6.8145-6.3437 0.20193-0.3263 0.26015-0.7553 0.13281-1.3692s-0.43982-1.413-0.98047-2.4804c-1.0813-2.135-3.0737-5.3426-6.3125-10.287-3.9537-6.0359-6.2553-9.715-7.3262-11.885-0.53546-1.0849-0.76281-1.7921-0.73438-2.2285 0.0284-0.4364 0.31103-0.6016 0.79883-0.6016 0.25298 0 2.8716 2.616 6.8867 6.8301 4.0151 4.214 9.4268 10.026 15.266 16.42 11.678 12.788 22.052 24.124 23.053 25.193 0.50056 0.5347 1.0229 0.9551 1.459 1.2011 0.43612 0.2461 0.78607 0.3177 0.94727 0.1563 0.32239-0.3224 1.2246-14.195 2.0039-30.828 0.77915-16.634 1.7064-31.156 2.0606-32.272 0.167-0.5262 0.33025-0.9017 0.49024-1.125s0.31671-0.2936 0.4707-0.209c0.30797 0.1691 0.60646 0.9584 0.89648 2.3887 0.58005 2.8606 1.1308 8.2829 1.6875 16.426 0.30679 4.4872 0.68561 8.6926 1.0488 11.854 0.36322 3.1609 0.71083 5.2774 0.95508 5.5859 0.33351 0.4213 1.0998 0.776 2.166 1.0547 1.0663 0.2787 2.4335 0.4812 3.9707 0.5976s3.244 0.1478 4.9902 0.082c1.7463-0.066 3.5311-0.2284 5.2246-0.4961 1.5355-0.2427 3.0838-0.5887 4.627-1.0293 1.5431-0.4406 3.0815-0.9755 4.6016-1.5938 3.0402-1.2365 6.0036-2.8072 8.7676-4.6328s5.3298-3.9055 7.5723-6.1582c1.1212-1.1263 2.1606-2.2972 3.1055-3.5 0.94484-1.2027 1.7935-2.4383 2.5312-3.6972 0.84662-1.4448 1.6648-3.1309 2.4141-4.9317s1.4302-3.7164 2.0059-5.6211c0.5757-1.9046 1.0452-3.7984 1.3711-5.5547 0.32594-1.7563 0.50781-3.3747 0.50781-4.7304 0-1.2499 6e-3 -2.1841-0.11914-2.8516-0.12526-0.6675-0.38105-1.0675-0.90625-1.2461-0.52521-0.1786-1.3197-0.1368-2.5195 0.08-1.1998 0.2169-2.8059 0.608-4.9551 1.1269-1.6684 0.4029-3.5329 0.7266-5.3926 0.9649s-3.714 0.3919-5.3594 0.4511c-1.6454 0.059-3.0819 0.025-4.1074-0.1093-1.0255-0.1345-1.6406-0.3701-1.6406-0.7129 0-0.2437 1.0942-0.8182 2.8555-1.5488 1.7612-0.7307 4.1894-1.6176 6.8613-2.4825 2.991-0.9682 5.858-2.0749 8.5996-3.3203 2.7417-1.2454 5.358-2.6301 7.8496-4.1523 2.4917-1.5223 4.8586-3.1818 7.0996-4.9805s4.356-3.7358 6.3457-5.8105c2.946-3.0719 5.9379-6.7165 8.0859-9.6993 1.074-1.4914 1.9371-2.8176 2.4785-3.8242 0.54138-1.0065 0.7602-1.6929 0.54687-1.9062-0.23244-0.2325-5.2412 0.7389-11.131 2.1582-2.9448 0.7097-5.7551 1.3092-7.9121 1.7031s-3.6607 0.5822-3.9883 0.4707c-0.30003-0.1022-0.40457-0.2538-0.27734-0.4687 0.12723-0.215 0.48744-0.4932 1.1152-0.8497 1.2556-0.7129 3.5858-1.7379 7.2832-3.1894 7.3948-2.9029 20.258-7.5127 40.937-14.75 23.238-8.1325 42.25-15.051 42.25-15.375-2e-4 -0.3239-20.588-7.4619-45.75-15.863-25.162-8.4015-46.412-15.691-47.221-16.197-0.93642-0.5858-1.3373-1.0056-1.2109-1.2597 0.12639-0.2542 0.77999-0.3424 1.957-0.2656 2.3541 0.1534 6.7974 0.9674 13.281 2.4394 7.7695 1.7638 14.353 2.9829 14.629 2.707 0.24261-0.2426-0.0696-1.2773-0.74609-2.7753-0.67653-1.4982-1.7167-3.4601-2.9316-5.5567-1.2149-2.0965-2.604-4.3272-3.9766-6.3652s-2.7294-3.8827-3.8789-5.2051c-2.9364-3.3781-5.779-6.281-8.7188-8.8184-1.4699-1.2686-2.9638-2.4452-4.5059-3.5449-1.5421-1.0996-3.1311-2.122-4.793-3.0801-1.6619-0.958-3.3972-1.8533-5.2266-2.6972-1.8293-0.844-3.7526-1.6373-5.7969-2.3946-4.0886-1.5144-8.6564-2.8825-13.891-4.2148-1.3661-0.3477-2.325-0.6733-2.9375-0.9727-0.6125-0.2993-0.87774-0.5722-0.85156-0.8125 0.0262-0.2402 0.34269-0.4487 0.89258-0.6191s1.3324-0.3028 2.291-0.3926c1.9173-0.1794 4.5378-0.1861 7.4004 0.021 2.8626 0.2077 5.9672 0.6297 8.8555 1.3106 3.504 0.8259 9.2952 2.6717 12.869 4.1015 1.9977 0.7992 3.5105 1.3834 4.6562 1.6289 0.57286 0.1228 1.0549 0.1616 1.459 0.1 0.40405-0.062 0.73138-0.2245 0.99609-0.5019 0.26471-0.2775 0.46627-0.6715 0.62109-1.1953 0.15482-0.5239 0.26156-1.1774 0.33594-1.9786 0.14877-1.602 0.16614-3.7897 0.16992-6.6855 3e-3 -2.2496-0.0811-4.3751-0.23632-6.2969-0.1552-1.9218-0.38165-3.6405-0.66407-5.0781-0.28241-1.4376-0.61921-2.5936-0.99804-3.3906-0.37884-0.797-0.79969-1.2344-1.2441-1.2344-0.27246 0-0.47123-0.065-0.57227-0.2344-0.10104-0.1698-0.10335-0.4456 0.0156-0.8652 0.23793-0.8391 0.96346-2.2566 2.373-4.5742 2.8192-4.6352 8.3705-12.867 18.209-27.252 11.069-16.183 19.956-29.59 19.752-29.795-0.20451-0.2045-14.938 6.3281-32.742 14.518-15.881 7.305-25.582 11.705-31.41 14.182-2.9143 1.2383-4.8605 1.9956-6.127 2.3946-1.2664 0.3988-1.8534 0.4395-2.0488 0.2441-0.21467-0.2146 0.83578-1.3548 2.334-2.5332 0.80822-0.6357 1.3838-1.1547 1.6797-1.6192 0.29593-0.4644 0.31261-0.8743 4e-3 -1.2929-0.30871-0.4187-0.94155-0.8455-1.9473-1.3438-1.0057-0.4982-2.3846-1.0681-4.1797-1.7715-1.6141-0.6324-3.4584-1.2038-5.4023-1.6933-1.944-0.4895-3.9863-0.8968-5.9961-1.2031s-3.9874-0.511-5.7988-0.5938c-1.8114-0.083-3.4578-0.044-4.8066 0.1367l-3.9707 0.5332-0.70117 5.6309c-0.36037 2.8927-0.81878 5.0669-1.3047 6.5195-0.24296 0.7263-0.49264 1.271-0.74023 1.6367-0.2476 0.3658-0.49217 0.5519-0.72657 0.5567-0.2344 0-0.45873-0.1709-0.66211-0.5274-0.20337-0.3565-0.38649-0.8931-0.54101-1.6113-0.30904-1.4363-0.50315-3.5973-0.50977-6.4824-5e-3 -2.0796-0.13993-4.1566-0.4082-6.2402-0.26827-2.0837-0.66813-4.1732-1.2051-6.2813s-1.2107-4.2337-2.0215-6.3867c-0.81075-2.1531-1.7599-4.3343-2.8496-6.5527-1.2731-2.5921-2.743-5.0726-4.3984-7.4336-1.6555-2.3611-3.496-4.6028-5.5098-6.7188s-4.2007-4.1064-6.5488-5.9629-4.8572-3.5793-7.5156-5.1621-5.4655-3.0255-8.4102-4.3203c-2.9446-1.2948-6.0275-2.4411-9.2344-3.4336s-6.5373-1.83-9.9824-2.5059c-3.4451-0.6758-7.0048-1.1902-10.664-1.5351-2.1706-0.2046-3.8272-0.3228-5.0547-0.2578-0.61373 0.032-1.12 0.1093-1.5293 0.2461-0.40932 0.1367-0.72142 0.3319-0.94726 0.5976-0.22585 0.2657-0.36444 0.6022-0.42774 1.0215s-0.051 0.9221 0.0273 1.5195c0.15663 1.195 0.57435 2.7708 1.1719 4.8262 0.4488 1.5438 0.81822 3.2011 1.0508 4.627s0.32823 2.6205 0.23242 3.2402c-0.0792 0.5121-0.14997 0.8894-0.24023 1.1172-0.0903 0.2277-0.19941 0.3056-0.35156 0.2207-0.30432-0.1699-0.78379-0.9933-1.6406-2.584-1.0368-1.9251-8.9768-19.702-17.645-39.502-4.3339-9.9002-8.3664-18.855-11.373-25.307-3.0067-6.4516-4.9875-10.4-5.2148-10.289zm-110.57 42.098c-0.21873 0-0.36273 0.5379-0.43359 1.5723-0.0709 1.0344-0.0681 2.5658 6e-3 4.5508 0.14792 3.9696 0.58197 9.7557 1.291 17.023 0.13109 1.3437 0.24332 2.3731 0.39063 3.1836 0.1473 0.8105 0.33127 1.4025 0.60742 1.8711 0.27615 0.4685 0.64448 0.813 1.1621 1.1308 0.51763 0.3179 1.183 0.6086 2.0547 0.9668 2.015 0.8282 4.1141 1.5434 4.6641 1.5899 0.275 0.023 1.0678-0.5734 2.123-1.5547 1.0553-0.9813 2.373-2.3472 3.6992-3.8594l4.8242-5.498-9.7266-10.488c-2.6747-2.8843-5.2101-5.5053-7.1426-7.4063-1.9325-1.9009-3.2621-3.082-3.5195-3.082zm232.71 19.5c-0.39376 0-1.7437 0.7986-3.5488 2.0137s-4.0635 2.8478-6.2734 4.5176c-2.2099 1.6697-4.3722 3.3763-5.9805 4.7402s-2.6641 2.3841-2.6641 2.6816c0 0.5735 1.8027 4.644 4.0059 9.045 1.1016 2.2004 2.2888 4.9879 3.3125 7.707s1.8841 5.3699 2.3359 7.2949c0.90376 3.8499 1.8038 7.6003 1.998 8.3359 0.0656 0.2484 0.18974 0.4464 0.38672 0.5938s0.46679 0.2439 0.82813 0.2949c0.72266 0.102 1.807 0.016 3.3848-0.2402 2.3363-0.3797 4.5079-0.9819 4.8262-1.3379 0.25997-0.2907 0.29713-3.2892 0.1875-7.6231-0.10963-4.3338-0.36524-10.004-0.6875-15.637s-0.71192-11.229-1.0898-15.418c-0.37792-4.1886-0.74488-6.9688-1.0215-6.9688zm-330.53 74.059c-0.10767-1e-3 -0.25482 0.01-0.43946 0.02-2.7707 0.1965-13.923 1.9144-24.727 3.7148-10.804 1.8005-21.258 3.6834-22.629 4.2071-0.22014 0.084-0.0982 0.4863 0.35156 1.1933s1.2283 1.7194 2.3262 3.0235c2.1957 2.6081 5.6649 6.3838 10.322 11.225 7.8964 8.2074 14.624 14.952 14.949 14.99 0.32545 0.038 1.1576-1.8442 1.8476-4.1816 0.57734-1.9555 1.322-3.9202 2.207-5.8516 0.88503-1.9314 1.9115-3.8286 3.0508-5.6504s2.3923-3.5686 3.7324-5.1953 2.7663-3.1343 4.2539-4.4805c2.5174-2.2781 3.9721-3.7143 4.7969-4.9707 0.41237-0.6282 0.66836-1.2115 0.82031-1.832 0.15194-0.6205 0.19922-1.2787 0.19922-2.0567 0-0.9886-0.0959-1.9468-0.25196-2.6953-0.15605-0.7484-0.37228-1.2871-0.60937-1.4336-0.0253-0.017-0.0935-0.026-0.20117-0.027zm22.18 175.44c-0.3388 0-4.1179 6.5391-7.8125 13.23-3.6946 6.6913-7.3047 13.535-7.3047 14.148 0 0.2388 0.0308 0.4129 0.30078 0.4785 0.27002 0.066 0.77919 0.022 1.7422-0.1699 1.926-0.3837 5.661-1.366 12.896-3.2852 7.4588-1.9783 13.901-3.807 14.316-4.0625 0.20751-0.1277-0.11514-0.8711-0.80274-1.9667-0.6876-1.0958-1.7401-2.5436-2.9902-4.0782-2.5002-3.0692-5.695-7.5408-7.0996-9.9375-1.4046-2.3968-2.8648-4.3574-3.2461-4.3574zm365.47 4c-0.37512 0-0.93445 0.1965-1.5352 0.5137s-1.2428 0.7551-1.7793 1.2363c-0.43219 0.3877-0.76657 0.7534-1.0195 1.207s-0.42461 0.9948-0.5293 1.7325c-0.20936 1.4753-0.15305 3.7373 0.0449 7.6582l0.44531 8.8496 14.645-0.7051c8.0538-0.3872 14.954-0.9951 15.336-1.3496 0.21262-0.1975-1.1612-1.4926-3.373-3.3242-2.2118-1.8317-5.2616-4.1996-8.3965-6.543-3.1349-2.3435-6.3556-4.6616-8.9121-6.3945s-4.449-2.8809-4.9258-2.8809z" fill="#fc0"/>
  <path d="m207.14 383.8c-0.11025-0.0113-0.22477 0.0523-0.3328 0.18915-0.1485 0.18807-1.6146 5.5213-3.2577 11.851-1.6431 6.3301-3.098 11.912-3.2334 12.405l-0.24598 0.89607-1.7875-0.1664c-6.5222-0.82179-11.954 1.5491-13.53 3.2153-0.12125-0.0429-2.459-3.1057-5.195-6.8058s-5.1237-6.7755-5.3056-6.8347c-0.54697-0.17807-0.3933 1.2294 0.9555 8.7452 0.6997 3.8989 1.2021 7.132 1.1162 7.1851s-0.81068-0.0241-1.6102-0.17158c-2.5928-0.47826-6.417-0.13335-9.3224 0.8408l-2.5771 0.86452-7.2647-5.8534c-3.9956-3.2194-7.39-5.8534-7.5432-5.8534-0.60425 0-0.14817 1.3024 3.268 9.3374 1.9506 4.5878 3.629 8.6005 3.7295 8.9173-0.58783 2.3621-1.564 4.9824-2.5125 7.5525-0.19421 0.51573-0.6656 0.56666-10.62 1.1508-5.7288 0.33621-10.512 0.67027-10.629 0.74208-0.1172 0.0718-0.17673 0.2885-0.1323 0.48214 4.363 5.1551 11.723 9.739 15.521 12.776 0.48361 1.8998 0.40405 3.7767 1.1043 5.702 0.48716 1.302 0.52234 1.6028 0.21962 1.8908-0.198 0.18836-6.9086 4.2996-14.912 9.1359-15.952 9.6393-16.529 10.013-15.957 10.334 0.20826 0.11655 8.4673-0.43982 18.354-1.2361s18.381-1.4146 18.875-1.3741l0.89917 0.0739 0.46043 2.249c-0.26976 1.2888 1.9086 4.2674 1.4072 5.3769-0.0976 0.17131-2.2423 3.3026-4.7661 6.9588s-4.5889 6.7816-4.5889 6.9453c0 0.16375 0.18781 0.29818 0.41755 0.29818 0.22973 0 3.6458-1.3097 7.5913-2.9104 3.9455-1.6008 7.3186-2.9104 7.4957-2.9104 3.6474 2.0704 7.3787 4.4845 11.42 5.4467 0.98042 0.22587 1.8638 0.49165 1.9632 0.59066-0.65305 11.828-3.4622 21.513-4.0137 34.022h5.2e-4c-3e-3 1.0018 0.0116 1.019 0.50384 0.57359 5.9252-10.19 11.787-18.916 18.364-29.251 0.11986-2e-3 0.81295 0.64678 1.5405 1.4428 11.002 8.7763 24.758 9.8038 34.091 0.67186 0.58322-0.58322 1.1793-1.0604 1.3245-1.0604s2.2478 2.9766 4.6726 6.6146c3.2367 4.8561 4.5452 6.6146 4.9222 6.6146 0.47333 0 0.50078-0.13954 0.35295-1.7859-0.13895-1.5476-0.57352-8.4029-0.7581-11.955l-0.061-1.1726 2.6458 0.0641c3.1778 0.0769 5.2972-0.48408 7.7008-2.0376 2.0196-1.3053 3.335-2.8513 4.5408-5.3382 0.52922-1.0914 0.98377-2.0207 1.0103-2.0645 0.0265-0.0438 3.852 0.18518 8.5013 0.5085 4.6493 0.32335 8.6732 0.50347 8.9416 0.4005 0.4218-0.16187 0.43662-0.23717 0.11007-0.55605-0.20772-0.20286-3.4734-2.179-7.2569-4.3915-3.7836-2.2125-6.93-4.0673-6.9923-4.1222-0.0623-0.0548 0.78015-0.99039 1.8722-2.079 1.0921-1.0885 2.3931-2.7023 2.8913-3.5858 0.49821-0.8835 1.0845-1.8194 1.3028-2.08 0.28151-0.33613 3.973-1.3745 12.7-3.5729 6.7667-1.7046 12.416-3.2104 12.554-3.346 0.15833-0.15576 0.15658-0.34161-6e-3 -0.50385-0.14131-0.14134-5.4935-1.5163-11.893-3.0556-6.3998-1.5394-11.835-2.8573-12.078-2.929-0.24307-0.0717-0.62741-0.6749-0.85421-1.3405-0.78171-2.2942-2.3575-4.7073-4.4643-6.8373l-2.0934-2.1167 0.48007-1.8521c0.5979-2.3057 0.59221-5.5565-0.0134-7.6398-0.43608-1.5001-0.43418-1.57 0.0594-2.1151 0.28082-0.31009 5.4079-5.8999 11.394-12.421 5.9857-6.5215 10.883-12.028 10.883-12.237 0-0.20881-0.12393-0.37928-0.27543-0.37928-0.15151 0-6.8134 3.7572-14.804 8.3498l-14.529 8.3504-1.9306-0.92707c-2.0323-0.97589-3.7501-1.4687-5.1563-1.4795-0.46436-4e-3 -0.9166-0.12345-1.0051-0.26664-0.0885-0.14322 0.0856-4.1986 0.38705-9.0119 0.30138-4.8132 0.47879-8.8632 0.39429-9-0.0846-0.13682-0.29672-0.24855-0.4718-0.24855-0.17507 0-2.1611 1.8455-4.4132 4.101s-4.199 4.101-4.3269 4.101-0.94135-0.6563-1.8076-1.4583c-2.03-1.8794-5.6313-3.6448-8.6728-4.2514-2.0338-0.40567-4.4173-0.42123-7.275-0.0471-0.46497 0.0609-0.90678-1.2298-4.2674-12.455-2.062-6.8876-3.8639-12.637-4.0039-12.777-0.0611-0.0611-0.12557-0.095-0.19172-0.10181zm0.20464 12.809c0.12028-0.0587 2.0955 4.1793 4.3889 9.418s4.3941 9.9422 4.6684 10.452c0.45341 0.84174 0.50687 0.87162 0.59067 0.32967 0.0507-0.3279-0.10203-1.2646-0.33952-2.0815-0.63238-2.1754-0.50875-2.3208 1.7885-2.1043 10.156 0.7606 18.084 7.6715 18.19 16.545 7e-3 3.0534 0.8051 3.0371 1.1865-0.0243l0.18552-1.4898 1.0506-0.14107c1.4275-0.19148 4.1136 0.21793 5.8219 0.88728 1.8998 0.74437 2.031 0.92191 1.1756 1.5947-0.3964 0.3118-0.67433 0.61345-0.61753 0.67023 0.20682 0.20684 2.0701-0.58478 10.474-4.4504 4.7106-2.1668 8.6089-3.8952 8.663-3.8411s-2.2975 3.6014-5.226 7.8832c-5.2062 7.6121-5.8751 8.7116-5.2984 8.7116 0.47038 0 0.83447 1.8525 0.83147 4.2333 0.91384 4.2422-8.3056-0.78569-10.758 1.1898 1.0228 0.67343 10.187 3.2566 12.262 6.8884 1.2166 1.3995 3.4372 5.0658 3.1806 5.3225-0.073 0.073-1.8149-0.24955-3.8706-0.71622-3.431-0.77894-4.7024-0.86183-3.7114-0.24185 0.21407 0.13389 5.8363 2.0626 12.494 4.2855 6.6575 2.2229 12.105 4.1114 12.105 4.1971 8e-5 0.0857-5.0304 1.9162-11.179 4.068-10.943 3.8298-13.615 4.8789-12.98 5.0953 0.17336 0.059 1.5903-0.19964 3.1486-0.57518 1.5583-0.37552 2.8835-0.63252 2.945-0.57102 0.22577 0.22577-1.381 2.4569-2.9399 4.0824-2.1057 2.1957-4.7441 3.8076-7.9096 4.8323-1.4139 0.45768-2.5709 0.93766-2.5709 1.0666 0 0.36279 2.5999 0.26926 4.3656-0.15709 2.2746-0.54922 2.249-0.55797 2.249 0.76481 0 1.4348-0.77056 3.9844-1.6666 5.5134-1.5616 2.6647-5.0062 4.9397-8.2563 5.4534-1.7923 0.28329-3.9734 0.11819-4.3264-0.32764-0.12925-0.16322-0.36786-2.2397-0.5302-4.6142-0.2946-4.3089-0.58444-5.7388-0.93793-4.625-0.71796 6.6449-0.66709 10.227-1.0754 16.695-0.0853 0.0854-0.37177-0.0762-0.63665-0.35914-3.8729-4.1406-6.8739-9.3372-11.96-12.817-0.51625 0-0.17082 0.69929 1.9213 3.8933 1.7139 2.6165 2.1082 3.3951 1.8945 3.7403-0.14844 0.23979-0.95976 0.995-1.803 1.6785-8.5704 6.9465-21.747 6.4745-29.839-1.0692-0.69122-0.64445-1.2568-1.3325-1.2568-1.5291 0-0.19664 0.59531-1.396 1.3229-2.665 1.2457-2.1726 1.4899-2.7259 1.2015-2.7259-0.29629 0-1.976 2.0846-9.4222 11.696-4.3637 5.6329-8.0494 10.314-8.1907 10.401-0.30567 0.18891-0.30679 1.2078 8e-3 -13.028 0.13919-6.2893 0.18387-11.617 0.0987-11.839-0.22144-0.57706-0.53358-0.28644-0.72606 0.67593-0.15903 0.79518-0.20601 0.8215-1.1586 0.64905-6.0016-1.4262-15.083-8.2306-17.413-18.11 0.0796-0.12877 1.0784-0.31705 2.2195-0.41807 2.2344-0.19778 2.9894-0.44937 2.4138-0.8051-10.693-1.341-18.575-0.68491-30.296-1.2408 3.2363-3.4629 23.868-17.455 22.859-18.592-1.7016 0.36367-3.9197 2.5798-5.4808 2.7744-2.3902-2.6582-0.80656-11.247 1.3658-13.442l0.62942-0.59118 0.48317 1.5958c0.26577 0.87775 1.1048 1.8937 1.3068 2.0615 0.0259-3.1661-0.78441-9.6078 2.1586-13.89 0.15927-0.0509 0.74285 1.0125 1.2971 2.3632 0.55423 1.3507 1.3719 3.1706 1.8175 4.0437 1.6221 3.179 1.0088 0.42659-2.2407-10.055-1.7815-5.7463-3.1638-10.523-3.0716-10.615 0.0922-0.0922 2.9999 1.6803 6.4616 3.9388s6.5724 4.2479 6.9122 4.4209c1.1344 0.57745 0.95392 6e-3 -0.36845-1.1663l-1.3079-1.1596 0.79375-0.30748c1.7061-0.66135 4.3086-1.099 6.6084-1.1116 3.8785-0.0211 6.9299 0.79893 10.25 2.7549 2.4554 1.4466 2.813 1.148 0.8878-0.74104l-1.5679-1.5384 1.403-1.2568c2.3788-1.9101 9.273-5.0559 14.651-4.2747 0.0879 0.14218-0.19246 1.5569-0.6227 3.144-0.87857 3.2409-1.0289 4.7096-0.416 4.0669 0.20321-0.21307 2.3166-5.3995 4.6964-11.525 2.3798-6.1259 4.4252-11.186 4.5455-11.245zm-29.255 11.138c0.13623 0 1.4056 1.2487 2.821 2.775l2.5735 2.775-1.2764 1.4547c-0.70179 0.80018-1.395 1.4448-1.5405 1.4325s-0.70088-0.20153-1.234-0.42064c-0.92259-0.37918-0.97644-0.47035-1.1152-1.8924-0.3752-3.8458-0.4599-6.1242-0.22841-6.1242zm61.571 5.1594c0.29274 0 0.96605 11.77 0.69092 12.077-0.0842 0.0942-0.65879 0.25353-1.2769 0.35399-0.83491 0.1357-1.1476 0.0913-1.217-0.17156 0.17321-2.5913-2.8738-6.3732-3.083-8.5679 0-0.3149 4.4693-3.6918 4.886-3.6918zm-87.569 19.6c0.0977-7e-3 0.15609-7e-3 0.1695 2e-3 0.12546 0.0775 0.22789 0.56928 0.22789 1.0924 0 0.8233-0.2068 1.1386-1.5389 2.344-1.5743 1.4247-2.8932 3.5337-3.5042 5.6033-0.18259 0.61844-0.40274 1.1164-0.48885 1.1064-1.1385-1.0824-7.9204-7.639-7.3949-8.0517 0.72526-0.2771 11.063-1.992 12.529-2.096zm5.9846 46.414c0.10089 0 0.48723 0.51874 0.85886 1.1529 0.37163 0.63413 1.2169 1.8172 1.8784 2.6293 0.66151 0.81205 1.1134 1.5318 1.0036 1.5994s-1.8144 0.55142-3.7879 1.0749c-3.8288 1.0156-3.9527 1.0403-3.9527 0.78756 0-0.3247 3.8205-7.244 3.9998-7.244zm96.697 1.0583c0.50459 0 7.0003 4.8558 6.7753 5.0648-0.10096 0.0938-1.9267 0.25463-4.0576 0.35708l-3.8747 0.18656-0.11782-2.3415c-0.10476-2.0748-0.0595-2.3936 0.3979-2.804 0.2839-0.25466 0.67845-0.46302 0.87695-0.46302z"/>
 </g>
</svg>
