<?xml version="1.0" encoding="UTF-8"?>
<svg version="1.1" viewBox="0 0 476 960" xmlns="http://www.w3.org/2000/svg">
 <path d="m7.02 404.64c9e-3 1.4652 0.30612 4.5852 0.9375 6.2825l1.5 3.3992 35.844-8.407 0.28125 121.22c0.16535 75.719-11.504 161.73-9.5 226.23 2.0037 64.501 28 147.74 28 147.74l3.7812 13.293c5.2963 18.697 97.367 24.978 166.78 24.978 1.113 0 2.2531-0.0259 3.375-0.0303 1.1218 5e-3 2.262 0.0303 3.375 0.0303 69.414 0 161.48-6.2811 166.78-24.978l3.7812-13.293s25.996-83.244 28-147.74c2.0037-64.501-9.6654-150.51-9.5-226.23l0.28125-121.22 35.844 8.407 1.5-3.3992c0.63135-1.6973 0.92853-4.8173 0.9375-6.2825 5e-3 -0.82414-0.0744-1.7046-0.25-2.6101-0.0584-0.30179-0.14123-0.60559-0.21875-0.91052-0.0754-0.29585-0.15686-0.61442-0.25-0.91051-0.19268-0.61039-0.42205-1.2271-0.6875-1.821-0.79205-1.7691-1.9028-3.4325-3.2812-4.6436-0.0107-0.01-0.0208-0.0211-0.0312-0.0303-0.69653-0.60683-1.4528-1.0803-2.2812-1.4265l-31.25-11.806 0.25-106.77c11.942-23.212 10.719-44.201 10.719-71.475 0-129.41-86.586-182.23-201.38-181.62-0.78015 0-1.5656 0.0185-2.3438 0.0301-0.77807-0.0117-1.5635-0.0301-2.3438-0.0301-114.79-0.61009-201.38 52.202-201.38 181.62 0 27.273-1.2236 48.262 10.719 71.475l0.25 106.77-31.25 11.806c-0.82846 0.34619-1.5847 0.81964-2.2812 1.4265-0.0104 0.01-0.0206 0.0207-0.0312 0.0303-1.3785 1.2111-2.4892 2.8745-3.2812 4.6436-0.26545 0.59391-0.49482 1.2106-0.6875 1.821-0.0931 0.29609-0.1746 0.61466-0.25 0.91051-0.0776 0.30493-0.16034 0.60873-0.21875 0.91052-0.1756 0.90553-0.25498 1.7859-0.25 2.6101z" fill="#d40000"/>
 <path d="m238.02 252.27c-94.169 0.11408-151.53 36.916-151.53 82.312h0.001953c0 2.9692 0.33216 5.8914 0.96875 8.7793-0.01 0.0104-0.02105 0.02085-0.03125 0.03125l12.312 63.844c6.6047 17.728 14.272 32 32 32h212.56c17.728 0 25.395-14.272 32-32l12.312-63.844c-0.0102-0.0105-0.02115-0.02085-0.03125-0.03125 0.6366-2.8879 0.96875-5.8102 0.96875-8.7793 0-45.396-57.362-82.198-151.53-82.312zm-169.51 141.66c0.4957 31.987 1.7903 71.843 2.375 121.53 1.266 107.58-17.183 179.9 31.531 205.56 3.2625-29.504 5.0625-61.447 5.0625-94.811 0-98.75-15.635-185.12-38.969-232.28zm339.02 0c-23.334 47.16-38.971 133.53-38.971 232.28h0.00196c0 33.364 1.8 65.307 5.0625 94.811 48.714-25.66 30.265-97.986 31.531-205.56 0.58471-49.686 1.8793-89.542 2.375-121.53zm-262.82 348.12c-13.296 0-24 7.0339-24 15.771h0.00391l12.469 51.096c4.3541 17.843 48.773 32.167 104.84 33.516 56.071-1.3487 100.49-15.673 104.84-33.516l12.469-51.096c0-8.7379-10.704-15.771-24-15.771h-186.62z" fill="#1a1a1a"/>
 <path d="m343.82 41.607 0.084 0.7168c2.3217 19.907 24.493 35.527 52.18 37.074h8e-3l0.98437 0.05273-0.67773-0.73438c-14.436-15.625-31.971-27.843-51.94-36.822z" fill="#e6e6e6"/>
 <path d="m133.22 41.609-0.63672 0.28516c-19.968 8.9795-37.504 21.198-51.939 36.822l-0.67969 0.73438 0.98437-0.05273c27.69-1.5449 49.866-17.165 52.187-37.074z" fill="#e6e6e6"/>
 <path d="m326.7 147.99 2.3438 4.4374c1.1568-0.98913 2.4286-1.7955 3.8438-2.3749 11.717-4.7979 29.236 10.736 35.781 26.875 0.20959 0.51678 0.84063 1.8129 1.6562 3.4062l-3.875-13.625c-8.4576-17.306-23.082-27.47-34-23-2.2374 0.91614-4.1661 2.3752-5.75 4.2812z" fill="url(#linearGradient4203)"/>
 <path d="m321.02 124.9 1.8438 6.1874c1.7128-0.96015 3.5323-1.6545 5.4688-2.0312 16.034-3.1194 34.284 20.962 38.5 43.031 0.64862 3.395 8.576 28.884 8.8044 32.158h4.125l-12.148-41.439c-5.4963-26.285-22.448-44.949-38.25-41.875-3.0616 0.59564-5.8596 1.956-8.3438 3.9687z" fill="url(#linearGradient4205)"/>
 <path d="m155.02 124.9-1.8438 6.1874c-1.7128-0.96015-3.5323-1.6545-5.4688-2.0312-16.034-3.1194-34.284 20.962-38.5 43.031-0.64863 3.395-8.576 28.884-8.8044 32.158h-4.125l12.148-41.439c5.4963-26.285 22.448-44.949 38.25-41.875 3.0616 0.59564 5.8596 1.956 8.3438 3.9687z" fill="url(#linearGradient4191)"/>
 <path d="m60.12 887.56c2.3868 8.4976 3.9609 13.548 3.9609 13.548l3.7812 13.294c2.4542 8.6638 23.556 14.659 52.387 18.601a84.208 67.582 0 0 0-60.129-45.442zm355.79 0.019a84.208 67.582 0 0 0-60.029 45.41c28.782-3.9425 49.841-9.9335 52.293-18.588l3.7812-13.294s1.5717-5.044 3.9551-13.529z" fill="#a00"/>
 <path d="m158.94 22.627-0.12109 0.03125-0.10938 0.03125c-0.0253 0.0074-0.033 2e-3 -0.0586 0.0098l0.25781-0.07227c-32.811 8.1968-66.553 27.653-87.732 50.346-32.129 35.285-43.646 83.228-43.739 129.26-0.17167 21.402-0.70896 43.1 6.4727 63.073v2e-3c1.1104 3.0765 2.404 6.1482 3.9043 9.25 0.1441 0.29809 0.26861 0.5304 0.4082 0.80664l0.23633 100.35-26.947 10.16-0.11133 0.0449c-10.353 4.6728-12.788 19.034-9.834 27.602l3.8926 8.8203 33.059-7.7324 0.26172 112.54c0.0049 2.3189-0.01208 4.6782-0.0293 7.0664-0.45328 59.897-7.4128 121.76-9.3106 180.11-0.29049 9.1562-0.45919 18.073-0.4082 26.725 0.02499 4.2402 0.09313 8.4273 0.2207 12.527 2.1485 44.225 10.653 85.357 22.174 128.05 2.154 7.9694 3.9694 14.119 5.0469 17.74v2e-3c0.70585 2.3689 1.0992 3.6194 1.123 3.6953l3.7266 13.209 2e-3 6e-3c0.5176 1.8235 1.3959 3.4338 2.4375 4.8164 0.36352 0.48254 0.74244 0.92656 1.1152 1.332 12.78 11.995 35.231 14.51 49.498 16.682 0.44781 0.0789 0.57825 0.0834 0.84961 0.11719 0.0198 1e-3 0.17971 0.0232 0.16796 0.0215 0.16989 0.025 0.34894 0.0493 0.51954 0.0742 39.689 5.1478 77.461 7.3965 122.08 6.92 39.959-0.0704 77.065-1.3658 111.42-5.4825 0.32027-0.0386 0.55724-0.0712 0.72657-0.0918h2e-3c3.6094-0.44042 7.1331-0.92265 10.514-1.4199-0.0264 4e-3 0.2474-0.0323 0.38672-0.0488-1.6453 0.16124-1.0266 0.21065 0.66797-0.0977 15.147-4.3527 39.301-4.0284 50.576-18.006 5.6009-12.399 9.1442-27.69 12.336-39.468 19.634-69.213 24.536-132.76 19.977-208.66-1.1709-19.093-2.5966-38.712-3.877-58.418v-2e-3c-0.94398-14.563-1.8027-29.155-2.4297-43.586v-2e-3c-0.0233-0.53401-0.0527-0.91605-0.0625-1.1465-0.30428-7.1425-0.54682-14.264-0.71289-21.297-0.11328-4.794-0.18281-9.5669-0.2168-14.303-0.0172-2.3895-0.0365-4.7481-0.0312-7.0664l0.26172-112.54 33.059 7.7324c5.7797-11.593 8.2536-24.858-1.7324-33.783-0.0626-0.0568 0.061 0.0499-0.0547-0.0508l-4e-3 -4e-3c-1.2112-1.0524-2.6246-1.9492-4.1465-2.584l-0.11132-0.0449-26.947-10.16 0.23438-100.35c0.14001-0.27702 0.26557-0.50954 0.41015-0.80859v-2e-3c43.202-193.09-82.772-298.14-279.3-251.93zm-43.031 916.71c-0.0717-3e-3 -0.46789-0.0684-0.6875-0.0957-0.0103-7.9e-4 -0.0691-8e-3 -0.0879-0.01 0.56978 0.0606 0.91371 0.11104 0.77539 0.10547zm-0.77539-0.10547c-0.0905-0.01-0.0116-7e-3 -0.12305-0.0176l-0.35547-0.043c0.34789 0.052 0.376 0.0506 0.47852 0.0606zm223.26-902.64-0.041 1.2227 0.59375 5.0938c2.7035 23.181 27.461 39.847 56.875 41.488h4e-3l10.281 0.54297c33.671 57.231 45.478 129.84 24.916 188.78l-0.25 106.77 31.25 11.805c0.8284 0.3462 1.5847 0.8209 2.2812 1.4277 0.0104 9e-3 0.0206 0.0193 0.0312 0.0293 5.7313 5.8138 5.5163 13.173 2.25 20.578l-35.844-8.4082-0.28125 121.22c-0.1654 75.72 11.504 161.73 9.5 226.23-1.4181 45.639-14.82 100.53-22.553 128.8-29.197 6.6824-52.606 25.464-61.812 50.229l-0.24804 0.66407c-40.505 4.2252-81.01 6.4689-117.32 6.2851-39.526-0.98176-81.061-1.5391-117.22-6.2715l-0.2461-0.66211c-9.2133-24.801-32.669-43.602-61.916-50.266-7.734-28.282-21.129-83.152-22.547-128.78-2.004-64.5 9.6654-150.51 9.5-226.23l-0.28125-121.22-35.844 8.4082c-3.599-7.4388-3.5678-18.104 4.5507-22.035l31.25-11.805-0.25-106.77c-11.943-23.213-10.719-44.202-10.719-71.475 0-50.13 12.999-88.759 35.59-117.25l11.342-0.59766h0.0039c40.756-2.3258 54.686-21.479 57.656-48.277 60.276-19.259 139.28-22.159 199.51 0.47873zm6.5332-3.5139c-229.95 617.95-114.98 308.98 0 0zm-64.213 2.7618c-2.1335-0.0057-3.5911 2.1546-2.7871 4.1309 0 0 29.372 72.105 39.105 98.756 9.2329 25.284 31.914 105.17 31.914 105.17 1.076 3.8759 6.8916 2.2273 5.7734-1.6367 0 0-22.512-79.47-32.051-105.59-9.186-25.153-33.417-84.742-36.982-93.504 4.1882 1.092 9.9001 2.7467 17.092 5.5566 12.296 4.8042 26.316 12.37 33.398 22.338 26.879 37.829 40.402 95.673 46.977 143.97 6.5745 48.297 6.3242 86.963 6.3242 86.963-0.0772 4.0502 6.0245 4.0899 6 0.0391 0 0 0.25611-39.069-6.3789-87.811-6.635-48.742-20.039-107.24-48.029-146.64-8.3659-11.774-23.306-19.449-36.107-24.451-12.801-5.0018-23.652-7.2324-23.652-7.2324-0.19605-0.03999-0.39561-0.06028-0.5957-0.06055zm-85.49 2e-3c-0.16016 0.0068-0.31953 0.02636-0.47656 0.05859 0 0-10.853 2.2306-23.654 7.2324s-27.74 12.677-36.105 24.451c-27.991 39.394-41.394 97.895-48.029 146.64-6.635 48.742-6.3789 87.811-6.3789 87.811-0.02448 4.0509 6.0772 4.0111 6-0.0391 0 0-0.25222-38.666 6.3223-86.963 6.5745-48.297 20.097-106.14 46.977-143.97 7.0821-9.9676 21.103-17.534 33.398-22.338 7.19-2.8093 12.903-4.4646 17.092-5.5566-3.5658 8.7626-27.795 68.351-36.98 93.504-9.5391 26.122-32.051 105.59-32.051 105.59-1.2044 3.9101 4.744 5.597 5.7715 1.6367 0 0 22.681-79.886 31.914-105.17 9.7332-26.651 39.107-98.756 39.107-98.756 0.82399-2.024-0.72289-4.2217-2.9062-4.1289zm148.6 5.7715 0.63867 0.28711c19.968 8.9795 37.504 21.198 51.939 36.822l0.67773 0.73438-0.98437-0.05273h-8e-3c-27.686-1.5475-49.858-17.167-52.18-37.074l-0.084-0.7168zm-210.61 2e-3 -0.084 0.71484c-2.3219 19.909-24.497 35.529-52.187 37.074l-0.98437 0.05273 0.67969-0.73438c14.436-15.625 31.971-27.843 51.939-36.822l0.63672-0.28516zm104.8 207.67c-47.475 0.0575-85.828 9.3267-112.56 24.57-26.733 15.244-41.967 36.781-41.967 60.742v3h0.16797c0.11274 1.6012 0.31144 3.1893 0.59766 4.7637l-0.07031 0.0703 12.658 65.633 0.08789 0.23438c3.343 8.9731 6.9761 17.271 12.361 23.553 5.3852 6.2819 12.78 10.4 22.449 10.4h212.56c9.669 0 17.064-4.1185 22.449-10.4 5.3852-6.2818 9.0182-14.58 12.361-23.553l0.0879-0.23438 12.656-65.625-0.0684-0.0703c0.46547-2.558 0.76367-5.1438 0.76367-7.7715 0-23.962-15.234-45.499-41.967-60.742-26.733-15.244-65.085-24.513-112.56-24.57h-8e-3zm0 6h8e-3c46.69 0.0576 84.099 9.2469 109.59 23.781 25.49 14.535 38.938 34.097 38.938 55.531 0 2.7454-0.3062 5.4462-0.89844 8.1328l-0.34766 1.5781 0.0664 0.0684-11.959 62.012c-3.2409 8.6731-6.7214 16.312-11.219 21.559-4.5316 5.2862-9.8336 8.3047-17.893 8.3047h-212.56c-8.0589 0-13.363-3.0185-17.895-8.3047-4.4974-5.2463-7.976-12.886-11.217-21.559l-11.961-62.021 0.06641-0.0684-0.3457-1.5684c-0.59223-2.6867-0.89844-5.3874-0.89844-8.1328v-0.0254c0.01074-21.424 13.455-40.977 38.936-55.506 25.489-14.534 62.899-23.724 109.59-23.781zm-166.81 137.33-5.6895 1.377c0.49636 32.029 1.7907 71.865 2.375 121.52 0.63089 53.608-3.6761 98.5-2.0234 133.6 0.82632 17.552 3.1333 32.694 8.4941 45.281s13.9 22.573 26.662 29.295l3.8965 2.0527 0.48437-4.377c3.2752-29.619 5.0801-61.669 5.0801-95.141 0-99.067-15.536-185.62-39.279-233.61zm333.64 0c-23.743 47.987-39.281 134.54-39.281 233.61v3h0.043c0.10551 32.376 1.8628 63.416 5.0391 92.141l0.48438 4.377 3.8965-2.0527c12.762-6.7222 21.301-16.708 26.662-29.295 5.3608-12.587 7.6678-27.729 8.4941-45.281 1.6526-35.104-2.6543-79.995-2.0234-133.6 0.58432-49.653 1.8786-89.488 2.375-121.52l-5.6895-1.377zm-333.01 16.283c19.312 47.761 32.245 125.41 32.631 213.29-13.273-1.43-24.802-6.1188-32.611-12.725 0.76435-27.199 2.4511-58.689 2.0352-94.029-0.504-42.827-1.4622-77.099-2.0547-106.54zm332.38 0c-0.59246 29.442-1.5507 63.714-2.0547 106.54-0.4159 35.34 1.2708 66.83 2.0352 94.029-7.809 6.606-19.338 11.295-32.611 12.725 0.38599-87.882 13.318-165.53 32.631-213.29zm-332.66 214.82c8.0761 6.3027 19.673 10.675 32.871 11.844-0.29304 28.095-1.8857 55.05-4.5215 80.318-9.2849-5.9142-15.706-13.71-20.02-23.838-4.9204-11.553-7.2144-26.027-8.0234-43.211-0.36797-7.816-0.42193-16.212-0.30664-25.113zm332.94 0c0.11529 8.9009 0.0613 17.297-0.30664 25.113-0.809 17.184-3.103 31.658-8.0234 43.211-4.3135 10.128-10.735 17.924-20.02 23.838-2.6358-25.268-4.2284-52.223-4.5215-80.318 13.198-1.169 24.795-5.5413 32.871-11.844zm-259.79 115.34c-7.177 0-13.707 1.8646-18.633 5.1016-4.9258 3.2369-8.3672 8.0761-8.3672 13.67v3h0.64844l11.91 48.807c1.3451 5.5122 5.5467 10.223 11.553 14.338 6.006 4.1152 13.953 7.7007 23.473 10.752 19.04 6.1026 44.387 10.035 72.656 10.715h0.1446c28.272-0.68003 53.618-4.6122 72.658-10.715 9.52-3.0513 17.469-6.6366 23.475-10.752s10.205-8.8254 11.549-14.338l12.555-51.445v-0.36133c1e-5 -5.594-3.4414-10.433-8.3672-13.67s-11.456-5.1016-18.633-5.1016h-186.62zm0 6h186.62c6.119 0 11.588 1.6509 15.338 4.1152 3.6615 2.4061 5.5407 5.3707 5.6289 8.4356l-12.35 50.605c-0.8311 3.409-3.8146 7.1797-9.1133 10.811-5.2986 3.6309-12.775 7.0577-21.912 9.9863-18.258 5.8521-43.131 9.7519-70.9 10.426-27.767-0.67398-52.638-4.5737-70.896-10.426-9.1373-2.9286-16.615-6.3554-21.914-9.9863-5.2992-3.6309-8.2833-7.4012-9.1152-10.811l-12.352-50.615c0.0921-3.0611 1.9694-6.0203 5.627-8.4238 3.7502-2.4644 9.2189-4.1172 15.338-4.1172zm272.21 138.88c-2e-3 8e-3 -4e-3 0.0158-6e-3 0.0234l-0.0156-4e-3zm-356.3 5.3242c23.655 6.3247 42.494 21.096 51.645 40.127-7.4676 1.3898-36.399-3.6806-44.414-15.022l-3.7695-13.254s-1.0182-3.276-2.6367-8.8945c-0.36816-1.32-0.47179-1.6978-0.82422-2.957zm354.79 0.0254c-0.31762 1.1348-0.40864 1.4651-0.74414 2.668-1.6593 5.7685-2.7109 9.1582-2.7109 9.1582l-3.7695 13.25c-0.65834 0.9506-1.7083 1.993-3.252 3.0684-12.415 7.3727-28.548 9.9039-41.062 11.941 9.1404-18.996 27.935-33.748 51.539-40.086z" fill="#2b0000"/>
</svg>
