<?xml version="1.0" encoding="UTF-8"?>
<svg width="210mm" height="297mm" version="1.1" viewBox="-22 0 254 254" xmlns="http://www.w3.org/2000/svg">
 <g transform="matrix(2.1562 0 0 2.1562 -121.93 -81.898)">
  <path d="m153.84 131.15c-1e-5 13.36-21.661 24.19-48.381 24.19s-48.381-10.83-48.381-24.19c-4e-6 -13.36 21.661-28.245 48.381-28.245s48.381 14.885 48.381 28.245z" fill="#d45500"/>
  <path transform="scale(.26458)" d="m299.65 398.62-8.2773 35.508c-1.8654 3.8223-2.8535 7.8313-2.8535 11.988 2e-5 29.143 48.488 52.77 108.3 52.77 59.815 0 108.3-23.627 108.3-52.77 0-4.0723-0.9479-8.0019-2.7402-11.754l-8.3418-35.781c-0.67132 0.52231-1.2615 1.0626-1.9883 1.5723-1.6673 1.1691-3.4794 2.303-5.4258 3.4004-1.9463 1.0974-4.0272 2.157-6.2344 3.1758-2.2072 1.0187-4.5403 1.9965-6.9902 2.9297-4.8999 1.8664-10.267 3.5544-16.029 5.0371-5.7619 1.4828-11.92 2.7609-18.398 3.8047-6.4787 1.0438-13.28 1.8547-20.33 2.4043-7.0504 0.54956-14.349 0.83789-21.826 0.83789-7.4769 0-14.778-0.28833-21.828-0.83789-7.0503-0.54956-13.849-1.3605-20.328-2.4043-6.4786-1.0438-12.637-2.3219-18.398-3.8047-5.7618-1.4828-11.128-3.1707-16.027-5.0371-2.4499-0.9332-4.7831-1.911-6.9902-2.9297s-4.2881-2.0784-6.2344-3.1758-3.7585-2.2313-5.4258-3.4004c-0.70886-0.49706-1.2834-1.0241-1.9394-1.5332z" fill="#f60"/>
  <path transform="scale(.26458)" d="m313.19 340.55-13.535 58.066c0.65609 0.50913 1.2306 1.0362 1.9394 1.5332 1.6673 1.1691 3.4795 2.303 5.4258 3.4004s4.0272 2.157 6.2344 3.1758 4.5404 1.9965 6.9902 2.9297c4.8997 1.8664 10.266 3.5544 16.027 5.0371 5.7618 1.4828 11.92 2.7609 18.398 3.8047 6.4786 1.0438 13.278 1.8547 20.328 2.4043 7.0504 0.54956 14.351 0.83789 21.828 0.83789 7.4769 0 14.776-0.28833 21.826-0.83789 7.0504-0.54956 13.851-1.3605 20.33-2.4043 6.4787-1.0438 12.637-2.3219 18.398-3.8047 5.7619-1.4828 11.129-3.1707 16.029-5.0371 2.4499-0.9332 4.783-1.911 6.9902-2.9297s4.288-2.0784 6.2344-3.1758c1.9463-1.0974 3.7585-2.2313 5.4258-3.4004 0.72682-0.50963 1.317-1.05 1.9883-1.5723l-13.535-58.061c-0.33789 0.2515-0.66384 0.50574-1.0469 0.74805-1.4467 0.91524-3.0201 1.803-4.709 2.6621s-3.4949 1.6888-5.4102 2.4863-3.9386 1.5643-6.0644 2.2949c-4.2517 1.4612-8.9085 2.7825-13.908 3.9434-4.9997 1.1608-10.343 2.1613-15.965 2.9785-5.6217 0.81718-11.523 1.4526-17.641 1.8828-6.1178 0.43025-12.452 0.6543-18.939 0.6543-6.4879 0-12.824-0.22406-18.941-0.6543-6.1177-0.43024-12.017-1.0656-17.639-1.8828-5.6216-0.81719-10.965-1.8177-15.965-2.9785-4.9996-1.1608-9.6566-2.4822-13.908-3.9434-2.1258-0.73059-4.1493-1.4974-6.0645-2.2949-1.9152-0.79755-3.7213-1.6272-5.4102-2.4863s-3.2623-1.7469-4.709-2.6621c-0.36701-0.23219-0.6801-0.47391-1.0039-0.71484z" fill="#ffe6d5"/>
  <path transform="scale(.26458)" d="m404.05 145.97c-0.21884-0.0335-0.42657-0.0985-0.64648-0.12891-0.0819-4e-3 -0.18232-0.0126-0.26758-0.0176 0.23773 0.0292 0.66363 0.11399 0.91406 0.14648z" fill="#d40000"/>
  <path transform="scale(.26458)" d="m325.06 289.6-11.877 50.953c0.3238 0.24093 0.63689 0.48265 1.0039 0.71484 1.4467 0.91524 3.0202 1.803 4.709 2.6621s3.495 1.6888 5.4102 2.4863c1.9152 0.79755 3.9387 1.5643 6.0645 2.2949 4.2516 1.4612 8.9086 2.7825 13.908 3.9434 4.9996 1.1608 10.343 2.1613 15.965 2.9785 5.6216 0.81718 11.521 1.4526 17.639 1.8828 6.1177 0.43024 12.454 0.6543 18.941 0.6543 6.4879 0 12.822-0.22405 18.939-0.6543 6.1178-0.43024 12.019-1.0656 17.641-1.8828 5.6217-0.81719 10.965-1.8177 15.965-2.9785 4.9997-1.1608 9.6565-2.4822 13.908-3.9434 2.1259-0.73059 4.1492-1.4974 6.0644-2.2949s3.7213-1.6272 5.4102-2.4863 3.2622-1.7469 4.709-2.6621c0.38304-0.24231 0.70899-0.49655 1.0469-0.74805l-11.875-50.945c-0.13038 0.0803-0.25033 0.16242-0.39454 0.24024-1.2502 0.67482-2.6089 1.3295-4.0684 1.9629-1.4595 0.63343-3.0207 1.2459-4.6758 1.834-1.6551 0.58805-3.4031 1.1527-5.2402 1.6914-3.6742 1.0773-7.699 2.0523-12.02 2.9082-4.3206 0.85589-8.9388 1.5928-13.797 2.1953-4.8581 0.60252-9.9574 1.0715-15.244 1.3887-5.2868 0.31722-10.761 0.48242-16.367 0.48242-5.6066 0-11.08-0.16521-16.367-0.48242-5.2867-0.31723-10.384-0.78616-15.242-1.3887s-9.4764-1.3394-13.797-2.1953c-4.3205-0.8559-8.3454-1.8309-12.02-2.9082-1.837-0.53868-3.5852-1.1034-5.2402-1.6914-1.655-0.58805-3.2164-1.2006-4.6758-1.834s-2.8182-1.2881-4.0684-1.9629c-0.12958-0.0699-0.23764-0.14307-0.35547-0.21485z" fill="#f60"/>
  <path transform="scale(.26458)" d="m390.9 145.77c-0.0827 5e-3 -0.18048 0.0138-0.25977 0.0176-0.23411 0.0302-0.45825 0.0953-0.69141 0.12891 0.26394-0.0322 0.70125-0.1178 0.95118-0.14649z" fill="#d40000"/>
  <path transform="scale(.26458)" d="m336.47 240.64-11.412 48.957c0.11783 0.0718 0.22589 0.14491 0.35547 0.21485 1.2502 0.67482 2.6089 1.3295 4.0684 1.9629s3.0208 1.2459 4.6758 1.834c1.655 0.58805 3.4032 1.1527 5.2402 1.6914 3.6741 1.0773 7.699 2.0523 12.02 2.9082 4.3205 0.85589 8.9388 1.5928 13.797 2.1953s9.9555 1.0714 15.242 1.3887c5.2867 0.31721 10.761 0.48242 16.367 0.48242 5.6066 0 11.08-0.1652 16.367-0.48242 5.2868-0.31722 10.386-0.78616 15.244-1.3887 4.8581-0.60252 9.4763-1.3394 13.797-2.1953 4.3206-0.8559 8.3454-1.8309 12.02-2.9082 1.8371-0.53868 3.5851-1.1034 5.2402-1.6914 1.6551-0.58805 3.2163-1.2006 4.6758-1.834 1.4594-0.63343 2.8182-1.2881 4.0684-1.9629 0.14421-0.0778 0.26416-0.15997 0.39454-0.24024l-11.41-48.949c-0.0929 0.0458-0.18239 0.0925-0.28711 0.13672-1.0523 0.44562-2.1954 0.87859-3.4238 1.2969s-2.5424 0.82262-3.9356 1.2109c-1.393 0.38832-2.8639 0.76146-4.4102 1.1172-3.0925 0.71143-6.4806 1.3547-10.117 1.9199-3.6366 0.56519-7.5242 1.0514-11.613 1.4492-4.0891 0.39788-8.3802 0.70851-12.83 0.91797-4.4499 0.2095-9.0564 0.31836-13.775 0.31836s-9.3276-0.1089-13.777-0.31836c-4.4498-0.20948-8.7392-0.52009-12.828-0.91797-4.089-0.39787-7.9768-0.88403-11.613-1.4492-3.6365-0.56519-7.0247-1.2085-10.117-1.9199-1.5462-0.35572-3.0171-0.72886-4.4102-1.1172-1.393-0.38831-2.7072-0.79264-3.9356-1.2109-1.2284-0.41829-2.3715-0.85126-3.4238-1.2969-0.0913-0.0387-0.17057-0.0793-0.25195-0.11914z" fill="#ffe6d5"/>
  <path transform="scale(.26458)" d="m396.85 145.39c-1.3384 3.7e-4 -4.0546 0.27938-5.9473 0.38281-0.24993 0.0287-0.68724 0.11426-0.95118 0.14649-13.775 1.9839-25.884 9.838-36.496 21.873l-16.982 72.848c0.0814 0.0399 0.16066 0.0805 0.25195 0.11914 1.0523 0.44562 2.1954 0.87859 3.4238 1.2969 1.2284 0.41829 2.5425 0.82262 3.9356 1.2109 1.393 0.38833 2.8639 0.76147 4.4102 1.1172 3.0925 0.71143 6.4806 1.3547 10.117 1.9199 3.6365 0.56519 7.5243 1.0514 11.613 1.4492 4.089 0.39788 8.3783 0.70849 12.828 0.91797 4.4498 0.20946 9.0583 0.31836 13.777 0.31836s9.3255-0.10886 13.775-0.31836c4.4498-0.20946 8.741-0.52009 12.83-0.91797 4.089-0.39787 7.9767-0.88403 11.613-1.4492 3.6366-0.56519 7.0247-1.2085 10.117-1.9199 1.5463-0.35573 3.0171-0.72887 4.4102-1.1172 1.3931-0.38831 2.7071-0.79264 3.9356-1.2109s2.3716-0.85126 3.4238-1.2969c0.10472-0.0442 0.19423-0.0909 0.28711-0.13672l-16.375-70.242c-10.242-13.378-22.355-22.2-36.799-24.41-0.25043-0.0325-0.67633-0.11724-0.91406-0.14648-1.9958-0.11661-4.831-0.43163-6.2617-0.4336h-0.0237z" fill="#f60"/>
 </g>
</svg>
